<svg viewBox="0 0 64 64"><path fill="#d50629" d="M58.47 11.14c-.19.15-.36.31-.48.53a32.53 32.53 0 0 0-2.2 5.14A35.73 35.73 0 0 0 54 28c0 6.43-1.71 12.37-5.87 16.97C43.89 49.68 37.11 52.99 27 54a51.03 51.03 0 0 0-16 5s-1.86 1-3 1c-2.21 0-4-.79-4-3s1-3 3-5c0 0 1.21-1.21 2.29-3.46a16.72 16.72 0 0 0 1.61-5.7c.07-.59.1-1.2.1-1.84 0-5.1-.58-16.49 8-24 8-7 19-5 29.08-8.51A11.87 11.87 0 0 0 52 6c.5-.5 1.1-1 1.78-1.38a4.08 4.08 0 0 1 6.2 2.99 3.96 3.96 0 0 1-1.51 3.53z"/><path fill="#980629" d="M20 47c-2 6 16 8 28.13-2.03C43.89 49.68 37.11 52.99 27 54a51.03 51.03 0 0 0-16 5s-1.86 1-3 1c-2.21 0-4-.79-4-3s1-3 3-5c0 0 1.21-1.21 2.29-3.46a16.72 16.72 0 0 0 1.61-5.7c.9 1.45 2.22 1.8 4.1-.84 4.96-6.95 12.88-24.73 35.48-26.95-3.22.43-20.53 2.1-30.48 31.95z"/><path fill="#d5cec7" d="M15.87 56.84c-1.8.69-3.4 1.43-4.87 2.16 0 0-1.86 1-3 1-2.21 0-4-.79-4-3s1-3 3-5c0 0 1.21-1.21 2.29-3.46.73 1.07 2.8 2.93 6.71-2.54 0 0-2.9 7.73-.13 10.84zM59.98 7.61a3.98 3.98 0 0 1-1.51 3.53c-.19.15-.36.32-.48.53a32.02 32.02 0 0 0-2.2 5.14C56 13 45 16 45 16c1.55-3.1 3.5-4.72 3.08-7.51A14.97 14.97 0 0 0 52 6c.5-.5 1.1-1 1.78-1.38a4.08 4.08 0 0 1 6.2 2.99z"/><path fill="none" stroke="#d5cec7" stroke-miterlimit="10" d="M59.98 7.61a4.01 4.01 0 0 0-1.61-2.78 3.85 3.85 0 0 0-.6-.39 4.08 4.08 0 0 0-3.99.18C53.1 5 52.5 5.5 52 6a14.97 14.97 0 0 1-3.92 2.49C38 12 27 10 19 17c-8.58 7.51-8 18.9-8 24 0 .64-.03 1.25-.1 1.84a16.72 16.72 0 0 1-1.61 5.7C8.21 50.79 7 52 7 52c-2 2-3 2.79-3 5s1.79 3 4 3c1.14 0 3-1 3-1a51.03 51.03 0 0 1 16-5c10.11-1.01 16.89-4.32 21.13-9.03C52.29 40.37 54 34.43 54 28c0-4.45.82-8.25 1.79-11.19a32.53 32.53 0 0 1 2.2-5.14c.06-.11.13-.2.21-.29.08-.09.17-.16.27-.24.9-.7 1.48-1.77 1.53-2.98 0-.18 0-.37-.02-.55z"/></svg>