<svg viewBox="0 0 266.67 266.67" height="266.67" width="266.67" xml:space="preserve"><defs><clipPath id="a" clipPathUnits="userSpaceOnUse"><path d="M0 200h200V0H0Z"/></clipPath></defs><g clip-path="url(#a)" transform="matrix(1.33333 0 0 -1.33333 0 266.67)"><path style="fill:#2e426a;fill-opacity:1;fill-rule:nonzero;stroke:none" d="M0 0c0-1.2-1-2.2-2.2-2.2h-62.1a19.7 19.7 0 0 0-19.6 19.6h4.3c0-8.4 6.8-15.2 15.2-15.2h62.2C-.9 2.1 0 1.1 0 0m23.4-2.2H9.8c-1.2 0-2.2 1-2.2 2.2 0 1.2 1 2.2 2.2 2.2h13.7c8.3 0 15.2 6.8 15.1 15a14.7 14.7 0 0 1-14.8 14.5h-34.5c-6.9 0-12.8 5.4-13 12.3-.2 7 5.3 12.9 12.3 13.1H0c6.4 0 11.6 5.2 11.6 11.6v12.1h4.3V68.7c0-8.8-7.1-15.9-15.9-15.9h-10.8c-4.5 0-8.4-3.5-8.6-8.1-.2-4.6 3.4-8.5 8.1-8.7h35c10.4 0 18.9-8.4 19.1-18.8.3-10.7-8.7-19.4-19.4-19.4" transform="translate(131.3 5.6)"/><path style="fill:#fce48c;fill-opacity:1;fill-rule:nonzero;stroke:none" d="M98.7 187.6h88.7V86H98.7Z"/><path style="fill:#fdc323;fill-opacity:1;fill-rule:nonzero;stroke:none" d="M0 0h82.9v-101.6H0V0" transform="translate(104.5 187.6)"/><path style="fill:#fdc323;fill-opacity:1;fill-rule:nonzero;stroke:none" d="M98.7 101.7h88.7V86H98.7Z"/><path style="fill:#ea9807;fill-opacity:1;fill-rule:nonzero;stroke:none" d="M0 0h82.6v-15.7H0V0" transform="translate(104.7 101.7)"/><path style="fill:#fce48c;fill-opacity:1;fill-rule:nonzero;stroke:none" d="M0 0h-3.1c-1.2 0-2.2-1-2.2-2.2 0-1.2 1-2.2 2.2-2.2H0c1.2 0 2.2 1 2.2 2.2C2.2-1 1.2 0 0 0m66 0H10.7C9.5 0 8.5-1 8.5-2.2c0-1.2 1-2.2 2.2-2.2H66c1.2 0 2.2 1 2.2 2.2C68.1-1 67.2 0 66 0" transform="translate(111.6 96)"/><path style="fill:#ea9807;fill-opacity:1;fill-rule:nonzero;stroke:none" d="M0 0c0-2.9-2.3-5.2-5.2-5.2-2.9 0-5.2 2.3-5.2 5.2 0 2.9 2.3 5.2 5.2 5.2C-2.4 5.2 0 2.9 0 0m-19 0c0-2.9-2.3-5.2-5.2-5.2-2.9 0-5.2 2.3-5.2 5.2 0 2.9 2.3 5.2 5.2 5.2 2.9 0 5.2-2.3 5.2-5.2" transform="translate(174.7 117)"/><path style="fill:#fff;fill-opacity:1;fill-rule:nonzero;stroke:none" d="M0 0c0-2.9-2.3-5.2-5.2-5.2-2.9 0-5.2 2.3-5.2 5.2 0 2.9 2.3 5.2 5.2 5.2C-2.3 5.2 0 2.9 0 0m-18.9 0c0-2.9-2.3-5.2-5.2-5.2-2.9 0-5.2 2.3-5.2 5.2 0 2.9 2.3 5.2 5.2 5.2 2.9 0 5.2-2.3 5.2-5.2" transform="translate(176.5 117)"/><path style="fill:#eb5d29;fill-opacity:1;fill-rule:nonzero;stroke:none" d="M0 0c0-2.5-1.8-4.6-4.1-5.1-2.8.6-4.6 3.4-4 6.2.4 2 2 3.6 4 4C-1.7 4.6 0 2.5 0 0m-18.9 0c0-2.5-1.8-4.6-4.1-5.1-2.8.6-4.6 3.4-4 6.2.4 2 2 3.6 4 4 2.4-.5 4.1-2.6 4.1-5.1" transform="translate(176.5 117)"/><path style="fill:#a6e0f6;fill-opacity:1;fill-rule:nonzero;stroke:none" d="M129.4 173.9h45v-40.4h-45z"/><path style="fill:#5cb4e2;fill-opacity:1;fill-rule:nonzero;stroke:none" d="M135 173.6h39.4v-40.4H135Z"/><path style="fill:#f3f3f3;fill-opacity:1;fill-rule:nonzero;stroke:none" d="M0 0h-40.6v36.1H0Zm4.3 40.4H-45V-4.4H4.3Z" transform="translate(172.2 135.7)"/><path style="fill:#1c243e;fill-opacity:1;fill-rule:nonzero;stroke:none" d="M138.3 145.8h8.9v-4.3h-8.9zm24.4 14.5h-1.4v3h1.4zm4.4 7.3H157V156h10.1zm-4.4-16.7h4.3v-11.6h-4.3zm-12-4.3h4.9v-7.3h4.3v11.6h-9.2zm-.8 21h4.3V156h-4.3zm-7.1 0h4.3V156h-4.3z"/><path style="fill:#fce48c;fill-opacity:1;fill-rule:nonzero;stroke:none" d="M0 0h-24.9c-1.2 0-2.2-1-2.2-2.2 0-1.2 1-2.2 2.2-2.2H0c1.2 0 2.2 1 2.2 2.2C2.2-1 1.2 0 0 0m0 6.9h-24.9c-1.2 0-2.2-1-2.2-2.2 0-1.2 1-2.2 2.2-2.2H0c1.2 0 2.2 1 2.2 2.2 0 1.2-1 2.2-2.2 2.2M-13.9 30h-11c-1.2 0-2.2-1-2.2-2.2 0-1.2 1-2.2 2.2-2.2h11c1.2 0 2.2 1 2.2 2.2 0 1.2-1 2.2-2.2 2.2m0 17.8h-11c-1.2 0-2.2-1-2.2-2.2 0-1.2 1-2.2 2.2-2.2h11c1.2 0 2.2 1 2.2 2.2 0 1.2-1 2.2-2.2 2.2" transform="translate(134.8 116.2)"/><path style="fill:#fac1ac;fill-opacity:1;fill-rule:nonzero;stroke:none" d="M0 0c3.3-1 5.5-4 5.5-7.4v-25.9c0-3.3-1.1-6.3-2.9-8.7-2.7-3.7-4.3-8.1-4.3-12.7v-23.6h-34.8V-63c0 8.6-3.7 16.6-10 22.5-5.4 5.1-8.5 12.2-8.5 19.6v15.8c0 1.9.6 3.8 1.6 5.2C-53.3.2 0 0 0 0" transform="translate(67.7 165.5)"/><path style="fill:#eb5d29;fill-opacity:1;fill-rule:nonzero;stroke:none" d="M0 0v-5.4c0-3.7-3-6.7-6.7-6.7-3.4 0-6.3 2.6-6.6 5.9-.4-3.7-3.6-6.3-7.3-6-3.2.3-5.7 2.8-6 6a6.74 6.74 0 0 0-13.4 0c-.3-3.4-3.2-6-6.6-6-3.7 0-6.7 3-6.7 6.7v5.4c-.1-3.6 2.9-6.6 6.6-6.7 3.5-.1 6.5 2.6 6.8 6.1.3-3.7 3.6-6.4 7.3-6.1 3.2.3 5.8 2.9 6.1 6.1.4-3.7 3.7-6.3 7.3-6 3.1.3 5.6 2.8 5.9 5.9.4-3.7 3.7-6.3 7.4-5.9.3 0 .6.1.9.2 2.9.8 5 3.4 5 6.5" transform="translate(67.7 165.7)"/><path style="fill:#fb9d6e;fill-opacity:1;fill-rule:nonzero;stroke:none" d="M0 0v-18.5a6.7 6.7 0 0 0-13.4 0V0A6.7 6.7 0 0 0 0 0" transform="translate(67.7 184)"/><path style="fill:#fb9d6e;fill-opacity:1;fill-rule:nonzero;stroke:none" d="M0 0v-24.2a6.7 6.7 0 0 0-13.4 0V0A6.7 6.7 0 0 0 0 0" transform="translate(54.4 189.6)"/><path style="fill:#fb9d6e;fill-opacity:1;fill-rule:nonzero;stroke:none" d="M0 0v-24.3a6.7 6.7 0 0 0-13.4 0V0A6.7 6.7 0 0 0 0 .4Z" transform="translate(41.1 189.7)"/><path style="fill:#fb9d6e;fill-opacity:1;fill-rule:nonzero;stroke:none" d="M0 0v-18.5a6.7 6.7 0 0 0-13.4 0V0A6.7 6.7 0 0 0 0 0" transform="translate(27.8 184)"/><path style="fill:#fac1ac;fill-opacity:1;fill-rule:nonzero;stroke:none" d="M0 0v-18.5c0-3.1-2.1-5.7-5-6.5-3 .7-5 3.4-5 6.5V0c0 3.1 2.1 5.7 5 6.5 2.9-.8 5-3.4 5-6.5m13.3 5.7v-24.3c0-3.1-2.2-5.8-5.1-6.5-3 .7-5.1 3.4-5.1 6.5V5.7c0 3.1 2.2 5.8 5.1 6.5 3-.7 5.1-3.4 5.1-6.5m13.3-.1v-24.2c0-3.1-2.1-5.7-5-6.5-3 .7-5 3.4-5 6.5V5.6c0 3.1 2.1 5.8 5 6.5 2.9-.7 5-3.4 5-6.5M39.9 0v-18.5c0-3.1-2.1-5.7-5-6.5-3 .7-5 3.4-5 6.5V0c0 3.1 2.1 5.7 5 6.5 2.9-.8 5-3.4 5-6.5" transform="translate(27.8 184)"/><path style="fill:#fb9d6e;fill-opacity:1;fill-rule:nonzero;stroke:none" d="M0 0a26.13 26.13 0 0 0 23.4-26v-.5c1.5 0 2.6 1.3 2.5 2.7C24.5-9.1 12.2 2.2-2.5 2.4-2.4 1.1-1.3.1 0 0" transform="translate(23.6 152.2)"/><path style="fill:#fac1ac;fill-opacity:1;fill-rule:nonzero;stroke:none" d="M0 0a26.1 26.1 0 0 1-23.4 25.9c-1.5.2-2.7 1.4-2.7 2.9v.1c0 1.6 1.3 2.9 3 2.9H-12c4.8 0 8.6 3.8 8.6 8.6a3 3 0 0 1-3 3h-18.7c-5.1 0-9.2-4.1-9.2-9.2V18.3c0-7.5 3.1-14.7 8.7-19.7.6-.5 1.1-1.1 1.7-1.6 5.2-5.6 8.1-13 8.1-20.6v-15.2H0Z" transform="translate(47 126.2)"/><path style="fill:#fb9d6e;fill-opacity:1;fill-rule:nonzero;stroke:none" d="M0 0h-22.9c0 5.7-3.1 11-8 13.9-4.5 2.6-8.5 6.6-10.7 9 4.4-5.4 6.8-12.2 6.8-19.2v-15.2h11.9v7.1h23V0zm-22.2 67.9c0-4.8-3.9-8.6-8.6-8.6H-42c-1.6 0-2.9-1.3-3-2.9 0 3.2 2.6 5.9 5.9 5.9H-28a5.7 5.7 0 0 1 5.8 5.6" transform="translate(65.9 98.8)"/><path style="fill:#7ddbcb;fill-opacity:1;fill-rule:nonzero;stroke:none" d="M0 0v-6.7h50.2v71.9H0v-6.7" transform="translate(24.5 29.2)"/><path style="fill:#71bea7;fill-opacity:1;fill-rule:nonzero;stroke:none" d="M0 0v-6.7h43.4v71.9H0v-6.7" transform="translate(31.2 29.2)"/><path style="fill:#71bea7;fill-opacity:1;fill-rule:nonzero;stroke:none" d="M19.7 87.7h36.6V29.2H19.7Z"/><path style="fill:#549080;fill-opacity:1;fill-rule:nonzero;stroke:none" d="M24.5 87.7h31.8V29.2H24.5Z"/><path style="fill:#195240;fill-opacity:1;fill-rule:nonzero;stroke:none" d="M53.1 87.7h3.2V29.2h-3.2z"/><path style="fill:#fff;fill-opacity:1;fill-rule:nonzero;stroke:none" d="M0 0c1.2 0 2.2 1 2.2 2.2v2.2c0 1.2-1 2.2-2.2 2.2-1.2 0-2.2-1-2.2-2.2V2.2C-2.1 1-1.2 0 0 0m0 12.6c1.2 0 2.2 1 2.2 2.2v31.8c0 1.2-1 2.2-2.2 2.2-1.2 0-2.2-1-2.2-2.2V14.8c.1-1.3 1-2.2 2.2-2.2" transform="translate(67.5 39)"/><path style="fill:#549080;fill-opacity:1;fill-rule:nonzero;stroke:none" d="M24.5 25.6h6.7v-3.1h-6.7z"/><path style="fill:#195240;fill-opacity:1;fill-rule:nonzero;stroke:none" d="M31.2 25.6h43.4v-3.1H31.2Z"/><path style="fill:#a6e0f6;fill-opacity:1;fill-rule:nonzero;stroke:none" d="M24.5 94.4h6.7v-3.1h-6.7z"/><path style="fill:#7ddbcb;fill-opacity:1;fill-rule:nonzero;stroke:none" d="M31.2 94.4h43.4v-3.1H31.2Z"/></g></svg>