<svg viewBox="0 0 266.67 266.67" height="266.67" width="266.67" xml:space="preserve"><defs><clipPath id="a" clipPathUnits="userSpaceOnUse"><path d="M0 200h200V0H0Z"/></clipPath></defs><g clip-path="url(#a)" transform="matrix(1.33333 0 0 -1.33333 0 266.67)"><path style="fill:#f6b577;fill-opacity:1;fill-rule:nonzero;stroke:none" d="M0 0c12.6 0 22.9-10.2 23-22.8v-.1c0-5.5 8.3-5.5 8.3 0 0 .8-.2 1.5-.2 2.3a22.92 22.92 0 0 0 12.3-38.8c-3.9-3.9 2-9.7 5.8-5.8 2.6 2.6 4.6 5.6 6.1 8.8a29.58 29.58 0 0 0-13.7-49.2c-5.6-1.2-3.3-9.7 2.1-8 2.2.6 4.3 1.4 6.3 2.4-.1-6.1-2.6-11.9-7-16.1-5.8-5.5-14.1-7.7-21.8-5.6-5.3 1.4-7.5-6.5-2.1-8 .5-.1 1-.2 1.6-.3a22.9 22.9 0 0 0-23.6-12.6 23.02 23.02 0 0 0-20 23v107.9C-22.9-10.3-12.7 0-.1 0zm-54.2 0c12.6 0 22.9-10.2 23-22.8v-108.3a22.98 22.98 0 0 0-43.6-10.2c.5.1 1 .2 1.6.3 5.3 1.4 3.2 9.4-2.1 8-7.8-2.1-16 .1-21.8 5.6-4.4 4.2-6.9 10-7 16.1 2-1 4.1-1.8 6.3-2.4 5.5-1.7 7.7 6.7 2.1 8a29.61 29.61 0 0 0-21 36.3c1.3 4.9 3.8 9.3 7.3 13 1.5-3.2 3.5-6.2 6.1-8.8 3.9-4 9.9 2 5.8 5.8a23 23 0 0 0 0 32.4c3.3 3.3 7.6 5.6 12.3 6.4-.1-.8-.2-1.5-.2-2.3 0-5.5 8.3-5.5 8.3 0A22.75 22.75 0 0 0-54.3 0Z" transform="translate(127.1 177)"/><path style="fill:none;stroke:#0572e4;stroke-width:1.21800005;stroke-linecap:round;stroke-linejoin:round;stroke-miterlimit:4;stroke-dasharray:none;stroke-opacity:1" d="M0 0v-108.2" transform="translate(100 154.1)"/><path style="fill:#62355c;fill-opacity:1;fill-rule:nonzero;stroke:none" d="M0 0a4.2 4.2 0 0 1-4.2-4.1v-.1c0-9.7 7.9-17.6 17.7-17.6 2.3-.1 4.2 1.6 4.4 3.9.1 2.3-1.6 4.2-3.9 4.4h-.5a9.3 9.3 0 0 0-9.4 9.3v.1C4.1-1.9 2.3-.1 0 0m-27.2 0c-2.3 0-4.1-1.9-4.1-4.2 0-5.2-4.2-9.4-9.4-9.4-2.3.1-4.2-1.6-4.4-3.9-.1-2.3 1.6-4.2 3.9-4.4h.5C-31-21.9-23.1-14-23-4.3c0 2.3-1.8 4.1-4.1 4.2 0 .1-.1.1-.1.1m47.3 20.2h-.3c-.1 0-.3 0-.4-.1-.1 0-.2-.1-.3-.1h-.2c-.1 0-.1-.1-.2-.1h-.1c-.2-.1-.4-.2-.6-.4 0 0-.1 0-.1-.1-.1-.1-.2-.1-.2-.2 0 0-.1 0-.1-.1l-.2-.2c-.1-.1-.2-.2-.2-.3 0 0 0-.1-.1-.1-.1-.1-.1-.2-.2-.2 0 0 0-.1-.1-.1-.1-.1-.1-.2-.1-.3l-.3-.9v-.3c-.1-.4-.1-.7 0-1.1V15c0-.1.1-.2.1-.3 0-.1.1-.2.1-.4v-.1s0-.1.1-.1c0-.1.1-.1.1-.2s.1-.1.1-.2l.1-.1s0-.1.1-.1c.1-.1.1-.2.2-.2l.1-.1.2-.2s.1 0 .1-.1c.1-.1.2-.1.2-.2 0 0 .1 0 .1-.1.1-.1.2-.1.3-.2 0 0 .1 0 .1-.1 4.6-2.8 8-7.2 9.7-12.3.9-2.1 3.3-3.1 5.4-2.3 1.9.8 3 2.9 2.4 4.9-.6 1.7-1.3 3.3-2.1 4.8 3.5-.4 7-.3 10.4.3 2.2.4 3.7 2.6 3.3 4.8-.4 2.2-2.6 3.7-4.8 3.3-7-1.3-14.1 0-20.2 3.5-.1 0-.2.1-.2.1-.2.1-.4.2-.7.3h-.1c-.1 0-.2 0-.3.1h-.5c-.3.4-.4.4-.6.4m-67.5 0c-.2 0-.5 0-.7-.1h-.1c-.1 0-.2 0-.3-.1h-.1c-.2-.1-.5-.2-.7-.3h-.1c-.1 0-.1-.1-.2-.1-6.1-3.5-13.3-4.8-20.3-3.5-2.2.4-4.4-1.1-4.8-3.3-.4-2.2 1.1-4.4 3.3-4.8 3.5-.6 7-.7 10.5-.3-.8-1.5-1.6-3.2-2.1-4.8-.6-2.2.6-4.5 2.8-5.1 2.1-.6 4.3.5 5 2.5 1.7 5.1 5.1 9.4 9.7 12.3h.1c.1.1.2.1.3.2 0 0 .1 0 .1.1.1.1.2.1.2.2 0 0 .1 0 .1.1l.2.2.1.1c.1.1.1.2.2.2 0 0 0 .1.1.1.1.1.1.2.2.2v.1c.1.1.1.2.1.3v.1c.1.1.1.2.1.4 0 .1.1.2.1.3v.1c0 .1 0 .2.1.3v.4c0 .3 0 .6-.1.9v.3l-.3.9c0 .1-.1.2-.1.3 0 0 0 .1-.1.1-.1.1-.1.2-.2.2l-.1.1c-.1.1-.1.2-.2.2l-.1.1-.2.2s-.1 0-.1.1c-.1.1-.2.1-.2.2 0 0-.1 0-.1.1-.2.1-.4.3-.6.4h-.1c-.1 0-.2.1-.3.1h-.2c-.1 0-.2.1-.3.1h-.4c.1-.1 0-.1-.2-.1M66.8 51.3c-1.9 0-3.4-1.3-3.9-3.1-.9-3.3-2.6-6.3-5.1-8.8a4.1 4.1 0 0 1 5.7-5.9l.1.1c3.5 3.5 5.9 7.7 7.2 12.5.6 2.2-.7 4.5-2.9 5.1-.3.1-.7.1-1.1.1m-161.2 0c-2.3-.2-4-2.1-3.8-4.4 0-.3.1-.6.1-.8 1.3-4.7 3.7-9 7.2-12.5a4.1 4.1 0 0 1 5.9 5.7l-.1.1a19.5 19.5 0 0 0-5.1 8.8c-.5 1.8-2.1 3.1-3.9 3.1zM9.7 82.8c-1.4-.1-2.7-.9-3.3-2.1a27.7 27.7 0 0 1 4.4-33.5 4.1 4.1 0 0 1 5.8 5.8c-6.3 6.2-7.6 15.9-3.1 23.6a4 4 0 0 1-1.5 5.6c-.6.3-1.3.5-1.9.6zm-47 0c-2.3-.1-4.1-2-4-4.3 0-.7.2-1.4.6-1.9A19.5 19.5 0 0 0-43.8 53a4.1 4.1 0 0 1 5.8-5.8 27.7 27.7 0 0 1 4.4 33.5c-.7 1.3-2.1 2.2-3.7 2.1m75.9 12.8c-1.8 0-3.3-1.1-3.9-2.8-1.7-5.1-5.2-9.5-9.8-12.3-.7-.4-1.2-1-1.6-1.7v-.1c-.7-1.5-.4-3.3.7-4.5l.1-.1c.2-.2.3-.3.5-.4l.1-.1c.3-.2.7-.4 1-.5h.1c.1 0 .2 0 .3-.1H27.8c.1 0 .2 0 .3.1h.2c.1 0 .2.1.3.1.1 0 .2.1.3.1.1 0 .2.1.2.1 6.2 3.5 13.3 4.8 20.3 3.5 2.2-.5 4.4.8 5 3 .5 2.2-.8 4.4-3 5-.2 0-.3.1-.5.1-3.5.6-7 .7-10.5.3.8 1.5 1.5 3.2 2.1 4.9.7 2.2-.5 4.5-2.6 5.2-.4.1-.9.2-1.3.2m-104.4 0a4.2 4.2 0 0 1-4.2-4.1c0-.5.1-.9.2-1.4.6-1.7 1.3-3.3 2.1-4.9-3.5.4-7 .3-10.4-.3a4.1 4.1 0 0 1-3.5-4.7 4.1 4.1 0 0 1 4.7-3.5c.1 0 .2 0 .3.1 7 1.3 14.1 0 20.2-3.5.1 0 .2-.1.3-.1.1 0 .2-.1.3-.1.1 0 .2-.1.3-.1h.6c.2 0 .5-.1.7-.1H-53.3c.1 0 .2 0 .3.1h.1c.3.1.7.3 1 .5l.1.1c.2.1.4.3.5.5l.1.1c1.1 1.2 1.4 3 .7 4.5v.1c-.4.7-.9 1.3-1.6 1.7-4.6 2.8-8 7.2-9.7 12.3a4.3 4.3 0 0 1-4 2.8m79.3 26c-9.7 0-17.6-7.9-17.7-17.6 0-2.3 1.8-4.1 4.1-4.1S4 101.7 4 104c0 5.2 4.2 9.4 9.4 9.4 2.3-.1 4.2 1.7 4.3 3.9.1 2.3-1.7 4.2-3.9 4.3zm-54.6 0c-2.3-.2-3.9-2.2-3.7-4.5.2-2.1 2-3.8 4.2-3.8 5.3 0 9.4-4.2 9.4-9.4 0-2.3 1.8-4.1 4.1-4.1s4.1 1.8 4.1 4.1c0 9.7-7.9 17.6-17.7 17.6-.1.1-.3.1-.4.1m54.6 5.3c12.6 0 22.9-10.2 23-22.8v-.1c0-2.3 1.9-4.1 4.1-4.1 2.3 0 4.1 1.8 4.1 4.1 0 .8-.2 1.5-.2 2.3a22.92 22.92 0 0 0 12.3-38.8 4.1 4.1 0 0 1 5.8-5.8c2.6 2.6 4.6 5.6 6.1 8.8A29.58 29.58 0 0 0 55 21.3c-2.2-.5-3.6-2.7-3.2-4.9.5-2.2 2.7-3.6 4.9-3.2.1 0 .3.1.4.1 2.2.6 4.3 1.4 6.3 2.4-.1-6.1-2.6-11.9-7-16.1C50.6-5.9 42.3-8.1 34.6-6c-2.2.6-4.5-.7-5.1-2.9-.6-2.2.7-4.5 2.9-5.1.5-.1 1-.2 1.6-.3a22.9 22.9 0 0 0-23.6-12.6C-1-25.4-9.6-15.7-9.6-4.1V104c0 12.6 10.2 22.9 22.8 22.9zm-54.2 0c12.6 0 22.9-10.2 23-22.8V-4.3a22.98 22.98 0 0 0-43.6-10.2c.5.1 1 .2 1.6.3 2.2.6 3.5 2.9 2.9 5.1-.6 2.2-2.9 3.5-5.1 2.9-7.8-2.1-16 .1-21.8 5.6-4.4 4.2-6.9 10-7 16.1 2-1 4.1-1.8 6.3-2.4 2.2-.7 4.5.5 5.2 2.7.7 2.2-.5 4.5-2.7 5.2-.1 0-.2.1-.4.1a29.61 29.61 0 0 0-21 36.3c1.3 4.9 3.8 9.3 7.3 13 1.5-3.2 3.5-6.2 6.1-8.8a4.1 4.1 0 0 1 5.8 5.8 23 23 0 0 0 0 32.4c3.3 3.3 7.6 5.6 12.3 6.4-.1-.8-.2-1.5-.2-2.3 0-2.3 1.9-4.1 4.1-4.1 2.3 0 4.1 1.8 4.1 4.1.1 12.7 10.3 23 23 23zm0 8.3c-13.4 0-24.8-8.6-29.2-20.5-11.8-.8-22.1-8.1-26.7-19-2.2-5.3-2.8-11-2-16.5a37.83 37.83 0 0 1 0-58.6c-1.5-9.9 2-20 9.2-27 5.4-5.1 12.3-8.1 19.6-8.6 5-13.6 18.8-22 33.2-20.1a31.2 31.2 0 0 1 23 15.6 31.2 31.2 0 0 1 23-15.6A31.1 31.1 0 0 1 42.6-15c7.3.5 14.2 3.5 19.6 8.6 7.2 7 10.7 17 9.2 27a38.2 38.2 0 0 1 13.2 22c2.7 13.7-2.4 27.8-13.2 36.6.9 5.6.2 11.3-2 16.5a31.19 31.19 0 0 1-26.7 19c-4.4 11.9-15.8 20.5-29.2 20.5-11.7 0-21.7-6.5-27.1-16-5.4 9.5-15.4 16-27.1 16" transform="translate(113.6 50.1)"/></g></svg>