<svg viewBox="0 0 266.67 266.67" height="266.67" width="266.67" xml:space="preserve"><defs><clipPath id="a" clipPathUnits="userSpaceOnUse"><path d="M0 200h200V0H0Z"/></clipPath></defs><g clip-path="url(#a)" transform="matrix(1.33333 0 0 -1.33333 0 266.67)"><path style="fill:#ffaf99;fill-opacity:1;fill-rule:nonzero;stroke:none" d="M0 0c-20.8-2-30.2-28.7-27-44.9 8.2-40.9 46.3-66.2 116.8-62.9 15.5.7 16.8 11.1 18 27 1.4 18-5 35.9-18 53.9-27 0-35.9 0-35.9 18s31.7 18 31.7 18v27H62.9c-25.8 0-45-29.2-44.9-53.9C16.5-14.2 20.7 2 0 0" transform="translate(56.6 118.4)"/><path style="fill:#e79f8a;fill-opacity:1;fill-rule:nonzero;stroke:none" d="M0 0v44.9h26.8v18h18v17.9h35.9V40.3c-24.3-1.8-49.6-26.4-50.8-53.7C33.4 7.6 8.1 6.8 0 0" transform="translate(44.6 114)"/><path style="fill:none;stroke:#373449;stroke-width:8;stroke-linecap:round;stroke-linejoin:round;stroke-miterlimit:4;stroke-dasharray:none;stroke-opacity:1" d="M0 0c4.7 6.7 43.4 6.2 42.2 35.6" transform="translate(32.2 64.9)"/><path style="fill:#e79f8a;fill-opacity:1;fill-rule:nonzero;stroke:none" d="M0 0c11.9 2.8 23-23.6 18.5-34.8-13.5.2-32.9-.5-35.4 8.7S-21.2-5 0 0" transform="translate(129 125.8)"/><path style="fill:#f6c6b9;fill-opacity:1;fill-rule:nonzero;stroke:none" d="M0 0c.9-1.6 1.7-3.5 1.9-5.8.2 1.6.7 3.1 1.1 4.7-.9.5-2 .8-3 1.1m16.5 83.3V65.1H-1.6c-1.8-16.2-12.9-17.8-26.7-17.9V9.8c1.8 1.5 1.1 2.2 4.2 2.9-1 12.4 11.9 41 27.9 43.4 0 0 32.5 24 44.9 26.3l3.8.9z" transform="translate(72.8 107.9)"/><path style="fill:none;stroke:#373449;stroke-width:8;stroke-linecap:round;stroke-linejoin:round;stroke-miterlimit:4;stroke-dasharray:none;stroke-opacity:1" d="M0 0c16.1 4.3 32.9-4.7 38-20.6" transform="translate(87.4 175.8)"/><path style="fill:none;stroke:#373449;stroke-width:8;stroke-linecap:round;stroke-linejoin:round;stroke-miterlimit:4;stroke-dasharray:none;stroke-opacity:1" d="M0 0v-18.1" transform="translate(88.1 176.8)"/><path style="fill:none;stroke:#373449;stroke-width:5;stroke-linecap:round;stroke-linejoin:round;stroke-miterlimit:4;stroke-dasharray:none;stroke-opacity:1" d="M0 0c-11.5 11.9-11.4 29.5.2 41.3" transform="translate(69.6 116.2)"/><path style="fill:#ffcbbd;fill-opacity:1;fill-rule:nonzero;stroke:none" d="M0 0c-20.8-2-30.2-28.8-26.9-45.1 8-40.3 68.7-69.9 115.4-57.5C31-109.3-6.2-76.4-12.3-45.1c-3 14.9 4.6 38.7 22 44C6.5-.1 3.2.3 0 0m22-20.4C31.4 15 56 29 81.1 32.4H66.8c-19.7 0-36.3-15-42.6-34.1" transform="translate(56.5 118.5)"/><path style="fill:#ff8e6f;fill-opacity:1;fill-rule:nonzero;stroke:none" d="M0 0v-26.9s-32.5.1-32.5-17.9 7.1-17.9 34.1-17.9c13-18 21.2-36.4 21.1-57.2-.1-20.8-37-18.7-52.8-18.7-1.2-.1-2.4 0-3.6 0 5.5-.1 25.1-5.5 31.1-5.2 27.1-4.8 36.4 11.1 37.7 26.9 1.4 18-5.2 36.2-18.1 54.2-27 0-36-.1-36 17.9s31.9 17.9 31.9 17.9V0z" transform="translate(129.3 154.2)"/><path style="fill:none;stroke:#373449;stroke-width:8;stroke-linecap:round;stroke-linejoin:round;stroke-miterlimit:4;stroke-dasharray:none;stroke-opacity:1" d="M0 0c-20.8-2-30.2-28.7-27-44.9 8.2-40.9 46.3-66.2 116.8-62.9 15.5.7 16.8 11.1 18 27 1.4 18-4.8 35.5-17.8 53.4-27 0-36.1.5-36.1 18.5s31.7 18 31.7 18v27H62.9c-25.8 0-45-29.2-44.9-53.9C16.5-14.2 20.7 2 0 0Z" transform="translate(56.6 118.4)"/><path style="fill:none;stroke:#373449;stroke-width:8;stroke-linecap:round;stroke-linejoin:round;stroke-miterlimit:4;stroke-dasharray:none;stroke-opacity:1" d="M0 0v44.9h26.8v18h18v17.9h35.9V40.3c-24.3-1.8-49.6-26.4-50.8-53.7C33.4 7.6 8.1 6.8 0 0Z" transform="translate(44.6 114)"/><path style="fill:#ff8e6f;fill-opacity:1;fill-rule:nonzero;stroke:none" d="M0 0c-1.3-.3-2.2-.8-3.3-1.1C6-5.8 13.2-22.3 9.6-31.7l9.1-.3C23.2-20.8 12 2.8 0 0" transform="translate(127.8 125.9)"/><path style="fill:none;stroke:#373449;stroke-width:8;stroke-linecap:round;stroke-linejoin:round;stroke-miterlimit:4;stroke-dasharray:none;stroke-opacity:1" d="M0 0c11.9 2.8 23-23.6 18.5-34.8-13.5.2-32.9-.5-35.4 8.7S-21.2-5 0 0Z" transform="translate(129 125.8)"/></g></svg>