<svg viewBox="0 0 266.67 266.67" height="266.67" width="266.67" xml:space="preserve"><defs><clipPath id="a" clipPathUnits="userSpaceOnUse"><path d="M0 200h200V0H0Z"/></clipPath></defs><g clip-path="url(#a)" transform="matrix(1.33333 0 0 -1.33333 0 266.67)"><path style="fill:#ff8585;fill-opacity:1;fill-rule:nonzero;stroke:none" d="m0 0-39.8-59a52.22 52.22 0 0 1-8.6-41.3l5.7-27.4c.9-4.2 1.3-8.5 1.3-12.8V-200H-23l7.6 5.9 11-5.9h18.9l3.4 5.9 12.4-5.9h34.4l-5.1 85.6c-.2 2.6 1 5.2 3.1 6.7l66 49.6c10 7.5 15.9 19.3 15.9 31.9V0h-20.9L90.8-5.9 76.5 0Z" transform="translate(55.7 199.9)"/><path style="fill:#ff7070;fill-opacity:1;fill-rule:nonzero;stroke:none" d="M0 0v-26.2c0-12.5-5.9-24.3-15.9-31.9l-66-49.6a7.72 7.72 0 0 1-3.1-6.7l5.1-85.6h11.7l-5.1 85.6c-.2 2.6 1 5.2 3.1 6.7l66 49.6c10 7.5 15.9 19.3 15.9 31.9V0z" transform="translate(188.5 199.9)"/><path style="fill:#f2f2f2;fill-opacity:1;fill-rule:nonzero;stroke:none" d="M0 0c-25.5-20.8-48-34.5-61.4-40.7-14.5-6.7-29.6-15.6-38.1-29.6-6.5-10.7-11.4-23.8-26.5-23-10 .6-18.7 8.7-20.3 18.8-1 6.5 1.3 13.1 5.6 18 4.6 5.4 11.2 6.3 17.6 9 15.6 6.8 28.3 16.6 41.7 27C-71.9-13.2-58.2-4.4-47.2.1H0Z" transform="translate(179.3 199.9)"/><path style="fill:#dedede;fill-opacity:1;fill-rule:nonzero;stroke:none" d="M0 0c0 5.2-.4 15.8-1.7 24.5-4.4 28.8-15.7 40.3-9.4 50.4 3.8 6.2 13 9.7 18.9 7.3 5.4-2.2 7.1-9.1 7.8-11.9 2.8-11.2-1.8-19.2-4.1-28.4C9.4 33.2 9.3 17.3 15.8 0Zm97.4 200c-25.5-20.8-48-34.5-61.4-40.7-14.6-6.7-29.6-15.6-38.2-29.6-5.4-8.8-9.6-19.2-19.4-22.2 1.5-.4 3-.7 4.6-.8 15.1-.8 20 12.3 26.5 23 8.5 14 23.6 22.9 38.1 29.6 13.4 6.2 36 19.9 61.4 40.7z" transform="translate(70.2 -.1)"/><path style="fill:#cecece;fill-opacity:1;fill-rule:nonzero;stroke:none" d="M0 0c2.3 9.2 6.9 17.2 4.1 28.4-.7 2.8-2.5 9.6-7.8 11.9-2.1.9-4.7 1-7.3.5.5-.1 1-.3 1.4-.5 5.4-2.2 7.1-9.1 7.8-11.9C1 17.2-3.6 9.2-5.9 0-8-8.7-8.1-24.6-1.6-41.9h5.9C-2.2-24.7-2.2-8.7 0 0" transform="translate(81.7 41.9)"/><path style="fill:#f2f2f2;fill-opacity:1;fill-rule:nonzero;stroke:none" d="M0 0c2.4 13.1 3 26.8 2.2 34.1-.8 6.7-1.8 9.6-4.4 27-1.6 10.8-2.2 17 .5 24 1.3 3.1 3.4 8.6 8.3 10.3 5.4 2 7.7-2.8 16-2.2 7.3.5 9.8 4.4 14.8 2.6.2-.1 4.5-1.7 5.6-5.4 1.5-5.1-4.4-10.4-8.3-15.1-7.1-8.4-9.4-16.3-13.8-31.8-2.4-8.4-4.8-25.3-2.4-43.6H0Z" transform="translate(32.7 -.1)"/><path style="fill:#dedede;fill-opacity:1;fill-rule:nonzero;stroke:none" d="M0 0c-1.1 3.7-5.3 5.3-5.6 5.4-2.1.8-3.8.5-5.6-.1 1-.4 4.4-2.1 5.4-5.3 1.5-5.1-4.4-10.4-8.3-15.1-7.1-8.4-9.4-16.3-13.8-31.8-2.4-8.4-4.8-25.3-2.4-43.6h5.9c-2.4 18.2-.1 35.2 2.4 43.6 4.5 15.5 6.7 23.4 13.8 31.8C-4.4-10.5 1.4-5.1 0 0m-26.3 2.8c.6 0 1.1.1 1.6.2-5.1.8-7.4 3.6-11.8 2-.1 0-.2-.1-.3-.1 2.7-.9 5.6-2.5 10.5-2.1" transform="translate(75.8 90.4)"/></g></svg>