<svg viewBox="0 0 266.67 266.67" height="266.67" width="266.67" xml:space="preserve"><defs><clipPath id="a" clipPathUnits="userSpaceOnUse"><path d="M0 200h200V0H0Z"/></clipPath></defs><g clip-path="url(#a)" transform="matrix(1.33333 0 0 -1.33333 0 266.67)"><path style="fill:#ff6d00;fill-opacity:1;fill-rule:nonzero;stroke:none" d="M0 0a46.7 46.7 0 1 0 0-93.4A46.7 46.7 0 0 0 0 0" transform="translate(48.3 150.2)"/><path style="fill:#ab0738;fill-opacity:1;fill-rule:nonzero;stroke:none" d="M0 0a46.7 46.7 0 1 0 0-93.4A46.7 46.7 0 0 0 0 0" transform="translate(86.5 169.6)"/><path style="fill:#32313c;fill-opacity:1;fill-rule:nonzero;stroke:none" d="M0 0a7.1 7.1 0 1 0 0-14.2A7.1 7.1 0 0 0 0 0" transform="translate(89 99.9)"/><path style="fill:#231f20;fill-opacity:1;fill-rule:nonzero;stroke:none" d="M0 0a5.6 5.6 0 1 1 0-11.2A5.6 5.6 0 1 1 0 0m0-14.2A8.5 8.5 0 1 0-.01 2.79 8.5 8.5 0 0 0 0-14.2" transform="translate(89 98.5)"/><path style="fill:#edb29f;fill-opacity:1;fill-rule:nonzero;stroke:none" d="m0 0 13.4 6.7 8.2 6.5 10.2 8 10.5 5.1 2.9-.1-.3-1.4-6.2-8.8-3.1-9.4-2.9-2.1-3.4.6-2.6 2.1-4.4-4.4-7.9-7.5Zm67.7-103.7 9.4-5.5 9.6.5 1.9-.1-15 7.9L62.3-99l-14.6.6-7.4-.1-.5 2.5 1.9 7.5 1.1 6.4 5.1 5.9 2 2.4 2.4-.7 5.2-1.1 6-1h4.6l4.2-1.4 2.2-.9 3.7 4.1 4.7 8.6 2.8 6.4-2.6 8.3-4.5 3.3-6.8 1-5.9-1.4-5.3-5.3-1.3-3.6-2-.1-3.7 5.9-6.5 3.4-3.9 2.6-17.1-9.4-3.2-14.8 6.5-5 2.4-3.2L28.1-89 27-101.5l1.6-7.1 12.4.6 16.4 3z" transform="translate(24.7 142.1)"/><path style="fill:#32313c;fill-opacity:1;fill-rule:nonzero;stroke:none" d="M0 0c-2.4.4-4.9.1-7.2-1-4.9-2.4-6.2-7.4-6.4-8.2-.1-.6-1.2-5.3 1.1-8.8.8-1.2 3.6-4.6 2.7-3.4l-1.4-2.2-2.3-3.5-4 1.7-.8 16.7 6.8 12.3 7.7 1.6L-1 3.9l3.8-2.8 3.7-2.7L9-3.4c.2-.4.4-1 .7-1.8 0 0 .5-1.9.5-3.7-.1-4.2-4.7-8.3-4.6-8.3l.2.1-.5 3.4c.6.6 2.5 2.4 2.7 5.2.4 4.4-3.5 7.2-4.1 7.6-.7.5-1.5.9-2.4 1.2Z" transform="translate(70.4 92.4)"/><path style="fill:#edb29f;fill-opacity:1;fill-rule:nonzero;stroke:none" d="m0 0 2.9-11.4 14.2 3.8 5.6-.3 5.2-1.4 4.3-2.2 5.3 2.4 4.3 4.7L50.6-1 54.1.7l.3 1.8s-5 .6-5.5.6-10.6.8-10.6.8L21.8 1 5.1-.4Z" transform="translate(143.1 134)"/><path style="fill:#32313c;fill-opacity:1;fill-rule:nonzero;stroke:none" d="m0 0 1.3-10-9-2.3-14.7-.2-13.2 3.4-8.6-1.3-17.6-4.2-6.1-4.4-35.4-.4 1.2 2.2-16.7.9-11.5 2.7-6.1 4.4-.5 7.3 3.5 3.3 15.1 8 13.2-5-2.6-2.9 8.5 1.1 22.6.2 18 3.3 19.1 1.1 15.9-4z" transform="translate(145.8 133.6)"/><path style="fill:#ab0738;fill-opacity:1;fill-rule:nonzero;stroke:none" d="M0 0c-.6.1-3.1.2-3.9-.5-.8-.7-1.7-2.3-1.7-2.3s-8.8 7.3-8.9 7.6l-1.4 6-3.1 6.5-2.5 12 2.7 13.3 2.6 3.9c.7 3.2 2.3 7.6 5.5 11.9C-8.6 61.1-5.1 65.6 0 66h.9c.2-2.7.9-5.4 1.9-8 1-2.4 2.6-6.2 6.5-9 1.4-1 5.2-3.7 8.6-2.4.9.4 1.6.9 2.1 1.4l-7.3-7.7-11.8-.6-1.7-4.2L10.9 25c-1.5.2-3 .1-4.4-.2-1-.2-7.9-1.7-10.7-8.3-.2-.5-2.6-6.4.5-12.1C-2.6 2.2-1.1.8 0 0" transform="translate(59.8 70)"/><path style="fill:#231f20;fill-opacity:1;fill-rule:nonzero;stroke:none" d="M0 0c-1.8 0-3.6 0-5.1.1-3.2.1-6.7 2.1-9.5 3.7-1.2.7-2.5 1.4-3 1.5-.8.1-5-.8-8.7-1.7-4.8-1.1-10.9-2.4-15.6-3C-51-.5-56.5.3-56.7.3c-.6.1-1.1.5-1.2 1.1-3.6 14.2-.2 29.3 9.1 40.6.5.6 1.5.7 2.1.1.6-.5.7-1.4.2-2-8.5-10.3-11.7-24-8.7-37 1.9-.2 6.5-.4 13.1.4 4.6.5 10.5 1.9 15.3 2.9 6.2 1.4 8.7 1.9 9.9 1.7 1-.2 2.2-.9 3.9-1.8 2.4-1.4 5.6-3.2 8.1-3.3 1.5-.1 3.3-.1 5-.1-5.7 2.5-13.7 5.9-15.8 6.6-2.4.7-19.3 1-30 1-.8 0-1.5.7-1.5 1.5s.7 1.5 1.5 1.5c2.8 0 27.2 0 30.9-1.1C-11.2 11.3 6.7 3.3 7.5 3c.7-.3 1.1-1.2.7-1.9C8 .6 7.5.2 6.9.2 6.6.1 3.4 0 0 0m-66.4 49.2c-.5 0-1 .2-1.2.7a32.67 32.67 0 0 0-1.1 33.5c-7 .2-25.2 1.2-30.1 5.6-6.2 5.7-3.4 11.5-3.3 11.7.3.6 1.4 3 3.2 3.4.6.2 3.4 1.8 5.5 3s4.3 2.4 5.8 3.2l1.8.9c4.3 2.2 14.5 7.3 16.5 9.2 2.6 2.5 9.6 8.4 13.6 10.8 4.1 2.4 11 6.2 12.3 6.8 1.5.8 3.5.6 4.5-.6.7-.9.7-2.1 0-3.1l-.5-.6c-1.4-1.8-5.7-7.2-6.7-9.7-.4-1-.7-2.2-1-3.3-.6-2.4-1.2-4.6-2.8-5.9-2.2-1.9-4.6-2-6.6-.4-.9.7-2 .8-2.6.2l-12.4-12.5-2.1 2.1s11.3 11.4 12.5 12.5c1.7 1.7 4.4 1.7 6.4 0 .6-.5 1.5-.9 2.9.4.8.7 1.3 2.6 1.8 4.4.3 1.2.7 2.5 1.1 3.6 1 2.6 4.6 7.2 7.1 10.4-.1 0-.2-.1-.3-.1-1.2-.6-8.3-4.5-12.2-6.8-3.8-2.2-10.6-8-13-10.3-2-2-9.5-5.8-17.3-9.7l-1.8-.9c-1.5-.8-3.7-2-5.7-3.2-3.7-2.1-5.4-3-6.2-3.3-.3-.1-.9-1-1.3-1.8-.1-.2-1.9-4.2 2.6-8.3 4.1-3.8 23.6-4.8 30.7-4.9.8 0 1.5-.7 1.4-1.5 0-.3-.1-.6-.2-.8-3.3-4.9-5-10.6-5-16.4 0-5.7 1.6-11.3 4.8-16.1.4-.7.2-1.6-.4-2-.1-.1-.4-.2-.7-.2" transform="translate(109.7 31.7)"/><path style="fill:#231f20;fill-opacity:1;fill-rule:nonzero;stroke:none" d="M0 0c-.7 0-1.4.6-1.5 1.3 0 0-.3 2.7-2.2 5.5-.9 1.4-4.7 4-8.3 6.5-3.9 2.7-8 5.5-10.5 8.1-2.1 2.1-3.1 4.2-3 6.3.1 2.4 1.7 3.8 1.9 4 .4.3 1 .4 1.5.2 6.7-2.6 14.2.7 16.8 7.4.1.2.1.3.2.5.2.5.7.9 1.2 1 .1 0 5.8.6 13 1.9a28 28 0 0 1 6.9 2.2c3.2 1.3 6.2 2.4 10.9 2.1 2.5-.2 5-.9 7.7-1.7 5.3-1.5 11.2-3.3 19.9-1.6 4 .8 8 1.8 11.9 2.8 7.9 2 13.7 3.5 17.6 2.2 3.5-1.2 4.7-2.1 5.4-2.7.3-.2.3-.2.4-.3l.5-.1c1.4-.3 4-.9 7.3 3 4.4 5.2 9.7 6.6 13.8 7.2.7.1 1.2.3 1.4.6-2.5.5-9.2 1.7-17.3.6-1.9-.3-4-.6-6.3-1-10.7-1.8-25.3-4.3-40.7-1.4C41.2 56 37 57.2 34 58c-4.6 1.3-6.9 2-15.3 2-7.8 0-18.4-1.5-27.8-2.8-7.5-1-14-2-17.9-2h-3.4c-7.1 0-13.8.1-23-1.7-7.5-1.5-10.6-.6-10.9-.5-.7.3-1.1 1.2-.8 1.9.3.7 1 1 1.7.9.1 0 2.8-.8 9.5.5 9.4 1.9 16.3 1.8 23.6 1.8h3.4c3.7 0 10.1.9 17.5 1.9 9.5 1.3 20.2 2.8 28.2 2.8 8.7 0 11.3-.7 16.1-2.1 3-.8 7-2 14.2-3.4 14.9-2.9 29.2-.4 39.7 1.4 2.3.4 4.5.8 6.4 1 10.9 1.5 19.2-.8 19.5-.9.4-.1.8-.4 1-.9.1-.2.6-1.6-.2-3.1-.6-1.1-1.8-1.8-3.5-2.1-3.8-.6-8.2-1.8-12-6.3-4.4-5.2-8.6-4.3-10.1-3.9l-.3.1c-.8.2-1.3.5-1.7.9-.6.5-1.4 1.2-4.5 2.2-3.1 1-8.8-.4-15.9-2.2-3.6-.9-7.7-1.9-12-2.8-9.4-1.9-16 .1-21.3 1.6-2.6.8-4.8 1.4-7.1 1.6-4 .3-6.6-.7-9.6-1.9-2.5-.6-4.9-1.6-7.9-2.1-4.1-.7-8.2-1.4-12.3-1.8a16.05 16.05 0 0 0-19.5-9.2c-.2-.4-.4-.8-.4-1.3 0-1.2.7-2.6 2.2-4.1 2.4-2.4 6.5-5.2 10.1-7.8 4.2-2.9 7.8-5.4 9-7.2C1 5.1 1.4 1.8 1.4 1.6 1.5.8.9.1.1 0Zm-26.5-14.7c-.1 0-.3 0-.4.1-8.4 2.4-14.3 9.8-14.9 18.5 0 .8.6 1.5 1.4 1.5.8.1 1.5-.6 1.5-1.4.5-7.5 5.6-13.8 12.7-15.9.8-.2 1.2-1 1-1.8 0-.6-.6-1-1.3-1" transform="translate(83.4 79.1)"/><path style="fill:#32313c;fill-opacity:1;fill-rule:nonzero;stroke:none" d="M0 0c.7-.4 1.8-.9 3.2-1 2-.2 3.4.5 8.3 2.7 4 1.8 4.8 2.1 6.2 2.2 1.1.1 3.1.2 5-.8.8-.5 1.9-1.6 4-3.9l-2.1 7.4-4.3 5-8.8 1.5-6.1-3-4.1-4.3L0 0" transform="translate(83.6 81.9)"/><path style="fill:#231f20;fill-opacity:1;fill-rule:nonzero;stroke:none" d="M0 0c-.8 0-1.8.3-2.8 1.5l-1.1 1.3c-.8.9-1.7 2-2.5 3-1.5 1.9-2.7 4.7-1 6.4.6.5 1.5.5 2.1-.1.5-.5.5-1.4 0-1.9-.1-.3.2-1.3 1.2-2.5.8-.9 1.7-2 2.4-2.9l1.1-1.3c.4-.5.5-.4.6-.4.3.1.3.1.6.4.2.1.4.3.7.6 1 1.1 8.3 15.2 8.8 16.6v.3c.2 4.3-3.2 7.8-3.4 7.9C4 31.6-.3 32.8-4.1 32c-4.1-.9-6.9-3.8-8.1-6-.1-.1-1.4-2.3-1.7-6.5-.1-.8-.8-1.4-1.6-1.3-.6.1-1.2.5-1.3 1.1l-.4 1.8c-.1.7.2 1.3.8 1.6.6 3.1 1.7 4.7 1.7 4.8 1.5 2.8 5 6.3 10 7.4 4.9 1 10.1-.5 13.5-3.9.5-.5 4.5-4.7 4.2-10.2v-.6C12.9 19 4.4 2.7 3.1 1.7c-.3-.2-.5-.3-.6-.5C2 .8 1.5.5.9.3.6 0 .3 0 0 0m-33.9-20.4-2.9.5c.9 4.7 1.7 7.6 2.2 8.8.3.7.6 3 .7 4.6.2 1.6.3 2.9.5 3.7.4 1.2 2.1 3.3 5 6.6 1.3 1.5 2.5 2.9 3 3.6 1 1.5.9 7.2.3 9.2-.2.8.2 1.6 1 1.8.8.2 1.6-.2 1.8-.9.7-2.1 1.2-9-.7-11.7-.6-.9-1.8-2.3-3.2-3.9-1.5-1.8-4.1-4.8-4.4-5.6-.2-.5-.3-1.9-.4-3.2-.3-2.6-.5-4.5-1-5.6 0-.2-.6-1.8-1.9-7.9" transform="translate(98.8 61.7)"/><path style="fill:#231f20;fill-opacity:1;fill-rule:nonzero;stroke:none" d="M0 0h-142.1c-.8 0-1.5.7-1.5 1.5s.7 1.5 1.5 1.5H0c.8 0 1.5-.7 1.5-1.5S.8 0 0 0m-64.7 31.8c-.3 0-.6.1-.9.3-.8.6-4.3.6-5.5.6-.7 0-1.3 0-2-.1-2.2-.2-4.5-.2-6.7.1-5 .6-6.8 3.3-6.9 3.6a1.46 1.46 0 1 0 2.5 1.5c.1-.1 1.2-1.8 4.8-2.2a32 32 0 0 1 6.1-.1c3.7.3 7.7.3 9.6-1.1.6-.5.7-1.4.2-2.1-.3-.3-.7-.5-1.2-.5" transform="translate(160.9 31.8)"/></g></svg>